<?xml version="1.0" encoding="UTF-8" standalone="no"?>
<svg height="245.56268" viewBox="0 0 234.84373 245.56269" width="234.84373" xmlns="http://www.w3.org/2000/svg" xmlns:xlink="http://www.w3.org/1999/xlink">
<defs>
<filter height="1.16986" width="1.38172" x="-.19086" y="-.08493">
<feGaussianBlur stdDeviation="11.01"/>
</filter>
<filter height="1.20985" width="1.39582" x="-.19791" y="-.10493">
<feGaussianBlur stdDeviation="10.03128"/>
</filter>
<linearGradient gradientUnits="userSpaceOnUse" x1="424.36719" x2="455.14841">
<stop offset="0" stop-color="#e5e5e5"/>
<stop offset=".1696" stop-color="#e2e2e2"/>
<stop offset=".3059" stop-color="#d8d8d8"/>
<stop offset=".4306" stop-color="#c7c7c7"/>
<stop offset=".5484" stop-color="#b0b0b0"/>
<stop offset=".6614" stop-color="#919191"/>
<stop offset=".7707" stop-color="#6b6b6b"/>
<stop offset=".8772" stop-color="#3e3e3e"/>
<stop offset=".9788" stop-color="#0c0c0c"/>
<stop offset="1"/>
</linearGradient>
<linearGradient gradientUnits="userSpaceOnUse" x1="30.8516" x2=".0713">
<stop offset="0" stop-color="#e5e5e5"/>
<stop offset=".2675" stop-color="#e2e2e2"/>
<stop offset=".4824" stop-color="#d8d8d8"/>
<stop offset=".679" stop-color="#c7c7c7"/>
<stop offset=".8635" stop-color="#b0b0b0"/>
<stop offset="1" stop-color="#999"/>
</linearGradient>
<linearGradient gradientUnits="userSpaceOnUse" x2="0" y1="30.8521" y2=".0718">
<stop offset="0" stop-color="#e5e5e5"/>
<stop offset=".2675" stop-color="#e2e2e2"/>
<stop offset=".4824" stop-color="#d8d8d8"/>
<stop offset=".679" stop-color="#c7c7c7"/>
<stop offset=".8635" stop-color="#b0b0b0"/>
<stop offset="1" stop-color="#999"/>
</linearGradient>
<linearGradient gradientUnits="userSpaceOnUse" x2="0" y1="423.89941" y2="454.67969">
<stop offset="0" stop-color="#e5e5e5"/>
<stop offset=".1696" stop-color="#e2e2e2"/>
<stop offset=".3059" stop-color="#d8d8d8"/>
<stop offset=".4306" stop-color="#c7c7c7"/>
<stop offset=".5484" stop-color="#b0b0b0"/>
<stop offset=".6614" stop-color="#919191"/>
<stop offset=".7707" stop-color="#6b6b6b"/>
<stop offset=".8772" stop-color="#3e3e3e"/>
<stop offset=".9788" stop-color="#0c0c0c"/>
<stop offset="1"/>
</linearGradient>
<linearGradient>
<stop offset="0" stop-color="#f5f5f5"/>
<stop offset="1" stop-color="#fff" stop-opacity="0"/>
</linearGradient>
<linearGradient gradientUnits="userSpaceOnUse" x1="480.26639" x2="355.88812" xlink:href="#linearGradient6943" y1="194.41983" y2="174.62085"/>
<linearGradient gradientTransform="matrix(.99118,-.13256,.13256,.99118,-10.3556,55.03192)" gradientUnits="userSpaceOnUse" x1="247.3362" x2="358.87143" xlink:href="#linearGradient6943"/>
</defs>
<title>Coffee cup icon</title>
<g transform="translate(4.6327611e-7,-19.84356)">
<path d="m39.39062,106.375c1.31813,29.36828 9.64949,106.41704 28.875,125.09375h49.15624 49.15625c19.2255-18.67671 27.55687-95.72547 28.875-125.09375h-78.03125z" fill-rule="evenodd"/>
<path d="m-1e-005,239.40625c5.97123,13.71488 26.25373,23.53762 38.1875,26h79.23438 79.20312c11.93377-2.46238 32.24752-12.28512 38.21875-26h-117.42187z" fill-rule="evenodd"/>
<path d="m187.05803,106.375c-26.50954,0-48.21587,21.70634-48.21587,48.21588s21.70633,48.21587 48.21587,48.21587 48.21588-21.70633 48.21588-48.21587-21.70634-48.21588-48.21588-48.21588zm0,20.00109c15.70075,0 28.21479,12.51404 28.21479,28.21479s-12.51404,28.21479-28.21479,28.21479-28.21479-12.51405-28.21479-28.21479 12.51405-28.21479 28.21479-28.21479z"/>
<g transform="matrix(1.97548,0,0,1.97548,-641.32854,-2.82126)">
<path d="m368.38379,13.47307c15.25668,15.91748-14.09368,16.96008 0,33.24031" fill="none" stroke="#000" stroke-linecap="round" stroke-width="4"/>
<path d="m385.40433,13.47307c15.25668,15.91749-14.09368,16.96008 0,33.24032" fill="none" stroke="#000" stroke-linecap="round" stroke-width="4"/>
<path d="m402.42488,13.47307c15.25668,15.91749-14.09368,16.96008 0,33.24032" fill="none" stroke="#000" stroke-linecap="round" stroke-width="4"/>
</g>
</g>
</svg>
