<?xml version="1.0" encoding="UTF-8" standalone="no"?>
<svg
   xmlns:dc="http://purl.org/dc/elements/1.1/"
   xmlns:cc="http://creativecommons.org/ns#"
   xmlns:rdf="http://www.w3.org/1999/02/22-rdf-syntax-ns#"
   xmlns:svg="http://www.w3.org/2000/svg"
   xmlns="http://www.w3.org/2000/svg"
   xmlns:xlink="http://www.w3.org/1999/xlink"
   xmlns:sodipodi="http://sodipodi.sourceforge.net/DTD/sodipodi-0.dtd"
   xmlns:inkscape="http://www.inkscape.org/namespaces/inkscape"
   height="245.56268"
   viewBox="0 0 234.84373 245.56269"
   width="234.84373"
   id="svg2"
   version="1.1"
   inkscape:version="0.91 r13725"
   sodipodi:docname="cup-152916.svg">
  <metadata
     id="metadata116">
    <rdf:RDF>
      <cc:Work
         rdf:about="">
        <dc:format>image/svg+xml</dc:format>
        <dc:type
           rdf:resource="http://purl.org/dc/dcmitype/StillImage" />
      </cc:Work>
    </rdf:RDF>
  </metadata>
  <sodipodi:namedview
     pagecolor="#ffffff"
     bordercolor="#666666"
     borderopacity="1"
     objecttolerance="10"
     gridtolerance="10"
     guidetolerance="10"
     inkscape:pageopacity="0"
     inkscape:pageshadow="2"
     inkscape:window-width="1505"
     inkscape:window-height="997"
     id="namedview114"
     showgrid="false"
     inkscape:zoom="15.376929"
     inkscape:cx="124.71424"
     inkscape:cy="181.25875"
     inkscape:window-x="65"
     inkscape:window-y="34"
     inkscape:window-maximized="0"
     inkscape:current-layer="svg2" />
  <defs
     id="defs4">
    <filter
       height="1.16986"
       width="1.38172"
       x="-.19086"
       y="-.08493"
       id="filter6">
      <feGaussianBlur
         stdDeviation="11.01"
         id="feGaussianBlur8" />
    </filter>
    <filter
       height="1.20985"
       width="1.39582"
       x="-.19791"
       y="-.10493"
       id="filter10">
      <feGaussianBlur
         stdDeviation="10.03128"
         id="feGaussianBlur12" />
    </filter>
    <linearGradient
       gradientUnits="userSpaceOnUse"
       x1="424.36719"
       x2="455.14841"
       id="linearGradient14">
      <stop
         offset="0"
         stop-color="#e5e5e5"
         id="stop16" />
      <stop
         offset=".1696"
         stop-color="#e2e2e2"
         id="stop18" />
      <stop
         offset=".3059"
         stop-color="#d8d8d8"
         id="stop20" />
      <stop
         offset=".4306"
         stop-color="#c7c7c7"
         id="stop22" />
      <stop
         offset=".5484"
         stop-color="#b0b0b0"
         id="stop24" />
      <stop
         offset=".6614"
         stop-color="#919191"
         id="stop26" />
      <stop
         offset=".7707"
         stop-color="#6b6b6b"
         id="stop28" />
      <stop
         offset=".8772"
         stop-color="#3e3e3e"
         id="stop30" />
      <stop
         offset=".9788"
         stop-color="#0c0c0c"
         id="stop32" />
      <stop
         offset="1"
         id="stop34" />
    </linearGradient>
    <linearGradient
       gradientUnits="userSpaceOnUse"
       x1="30.8516"
       x2=".0713"
       id="linearGradient36">
      <stop
         offset="0"
         stop-color="#e5e5e5"
         id="stop38" />
      <stop
         offset=".2675"
         stop-color="#e2e2e2"
         id="stop40" />
      <stop
         offset=".4824"
         stop-color="#d8d8d8"
         id="stop42" />
      <stop
         offset=".679"
         stop-color="#c7c7c7"
         id="stop44" />
      <stop
         offset=".8635"
         stop-color="#b0b0b0"
         id="stop46" />
      <stop
         offset="1"
         stop-color="#999"
         id="stop48" />
    </linearGradient>
    <linearGradient
       gradientUnits="userSpaceOnUse"
       x2="0"
       y1="30.8521"
       y2=".0718"
       id="linearGradient50">
      <stop
         offset="0"
         stop-color="#e5e5e5"
         id="stop52" />
      <stop
         offset=".2675"
         stop-color="#e2e2e2"
         id="stop54" />
      <stop
         offset=".4824"
         stop-color="#d8d8d8"
         id="stop56" />
      <stop
         offset=".679"
         stop-color="#c7c7c7"
         id="stop58" />
      <stop
         offset=".8635"
         stop-color="#b0b0b0"
         id="stop60" />
      <stop
         offset="1"
         stop-color="#999"
         id="stop62" />
    </linearGradient>
    <linearGradient
       gradientUnits="userSpaceOnUse"
       x2="0"
       y1="423.89941"
       y2="454.67969"
       id="linearGradient64">
      <stop
         offset="0"
         stop-color="#e5e5e5"
         id="stop66" />
      <stop
         offset=".1696"
         stop-color="#e2e2e2"
         id="stop68" />
      <stop
         offset=".3059"
         stop-color="#d8d8d8"
         id="stop70" />
      <stop
         offset=".4306"
         stop-color="#c7c7c7"
         id="stop72" />
      <stop
         offset=".5484"
         stop-color="#b0b0b0"
         id="stop74" />
      <stop
         offset=".6614"
         stop-color="#919191"
         id="stop76" />
      <stop
         offset=".7707"
         stop-color="#6b6b6b"
         id="stop78" />
      <stop
         offset=".8772"
         stop-color="#3e3e3e"
         id="stop80" />
      <stop
         offset=".9788"
         stop-color="#0c0c0c"
         id="stop82" />
      <stop
         offset="1"
         id="stop84" />
    </linearGradient>
    <linearGradient
       id="linearGradient86">
      <stop
         offset="0"
         stop-color="#f5f5f5"
         id="stop88" />
      <stop
         offset="1"
         stop-color="#fff"
         stop-opacity="0"
         id="stop90" />
    </linearGradient>
    <linearGradient
       gradientUnits="userSpaceOnUse"
       x1="480.26639"
       x2="355.88812"
       xlink:href="#linearGradient6943"
       y1="194.41983"
       y2="174.62085"
       id="linearGradient92" />
    <linearGradient
       gradientTransform="matrix(.99118,-.13256,.13256,.99118,-10.3556,55.03192)"
       gradientUnits="userSpaceOnUse"
       x1="247.3362"
       x2="358.87143"
       xlink:href="#linearGradient6943"
       id="linearGradient94" />
  </defs>
  <title
     id="title96">Coffee cup icon</title>
  <g
     transform="translate(4.6327611e-7,-19.84356)"
     id="g98">
    <path
       d="m39.39062,106.375c1.31813,29.36828 9.64949,106.41704 28.875,125.09375h49.15624 49.15625c19.2255-18.67671 27.55687-95.72547 28.875-125.09375h-78.03125z"
       fill-rule="evenodd"
       id="path100" />
    <path
       d="m-1e-005,239.40625c5.97123,13.71488 26.25373,23.53762 38.1875,26h79.23438 79.20312c11.93377-2.46238 32.24752-12.28512 38.21875-26h-117.42187z"
       fill-rule="evenodd"
       id="path102" />
    <path
       d="m187.05803,106.375c-26.50954,0-48.21587,21.70634-48.21587,48.21588s21.70633,48.21587 48.21587,48.21587 48.21588-21.70633 48.21588-48.21587-21.70634-48.21588-48.21588-48.21588zm0,20.00109c15.70075,0 28.21479,12.51404 28.21479,28.21479s-12.51404,28.21479-28.21479,28.21479-28.21479-12.51405-28.21479-28.21479 12.51405-28.21479 28.21479-28.21479z"
       id="path104" />
    <g
       transform="matrix(1.97548,0,0,1.97548,-641.32854,-2.82126)"
       id="g106">
      <path
         d="m368.38379,13.47307c15.25668,15.91748-14.09368,16.96008 0,33.24031"
         fill="none"
         stroke="#000"
         stroke-linecap="round"
         stroke-width="4"
         id="path108" />
      <path
         d="m385.40433,13.47307c15.25668,15.91749-14.09368,16.96008 0,33.24032"
         fill="none"
         stroke="#000"
         stroke-linecap="round"
         stroke-width="4"
         id="path110" />
      <path
         d="m402.42488,13.47307c15.25668,15.91749-14.09368,16.96008 0,33.24032"
         fill="none"
         stroke="#000"
         stroke-linecap="round"
         stroke-width="4"
         id="path112" />
    </g>
  </g>
  <path
     style="fill:#ffffff"
     d="m 84.22622,72.530945 c -1.853926,-1.298542 -7.126057,-9.637622 -8.215543,-12.994761 -1.354011,-4.172245 -1.263999,-9.486259 0.22352,-13.195782 1.380625,-3.442956 3.251005,-6.197271 8.527176,-12.557084 2.255179,-2.718358 4.681132,-6.079742 5.391007,-7.469743 C 92.81417,21.101541 91.325345,15.213481 85.693423,8.6791237 84.274547,7.0328923 82.956342,5.1903512 82.764081,4.5845883 82.24043,2.9347111 84.059422,0.78509027 86.153706,0.57884847 88.237259,0.37366348 90.25849,2.1384903 94.01264,7.4408349 c 4.470362,6.3139191 5.86884,11.8444571 4.422562,17.4898311 -1.126744,4.398116 -2.977873,7.469781 -8.618047,14.300334 -5.914874,7.163229 -7.294554,9.820102 -7.287754,14.034148 0.0061,3.752094 1.280093,6.767302 4.953377,11.722949 2.847749,3.841912 3.204454,5.844517 1.313734,7.375528 -1.440583,1.166516 -3.059143,1.225768 -4.570292,0.16732 z"
     id="path3444"
     inkscape:connector-curvature="0" />
  <path
     style="fill:#ffffff"
     d="m 118.31066,72.771477 c -1.38055,-0.804748 -5.36552,-6.21733 -7.12132,-9.672511 -4.40325,-8.665023 -3.0856,-16.809586 4.15358,-25.673828 1.51896,-1.859929 3.80443,-4.6626 5.07884,-6.228156 3.03765,-3.731636 4.75253,-7.486966 4.75838,-10.420162 0.006,-3.124368 -2.18494,-7.641931 -5.89908,-12.162196 -1.74175,-2.1197746 -2.93985,-4.0810122 -2.93985,-4.8124045 0,-1.8137425 1.76187,-3.31553617 3.8897,-3.31553617 1.60916,0 2.15562,0.41605426 4.95411,3.77188447 1.72999,2.0745364 4.01814,5.5150475 5.08478,7.6455802 1.83333,3.661954 1.93934,4.145402 1.93934,8.844419 0,4.506045 -0.15259,5.286853 -1.63232,8.352412 -0.89777,1.859929 -3.18541,5.254625 -5.08363,7.543769 -8.77278,10.579443 -10.44407,14.1237 -9.1681,19.442519 0.61117,2.547645 3.43498,7.500613 6.06751,10.642411 1.57049,1.874299 1.58145,4.002921 0.0281,5.462188 -1.29392,1.215577 -2.68302,1.41147 -4.11008,0.579611 z"
     id="path3446"
     inkscape:connector-curvature="0" />
  <path
     style="fill:#ffffff"
     d="m 151.26742,72.351347 c -2.17699,-2.176992 -5.3118,-6.799194 -6.93223,-10.221396 -1.59226,-3.362716 -1.72085,-4.024845 -1.72085,-8.860942 0,-5.00123 0.084,-5.393909 1.94831,-9.104549 1.10739,-2.204142 4.08422,-6.448636 6.89699,-9.834018 5.9843,-7.202568 7.28876,-9.640829 7.26625,-13.581842 -0.0206,-3.612974 -1.75606,-7.223871 -5.72575,-11.9135996 -3.107,-3.6705646 -3.66523,-5.8812846 -1.89061,-7.4872933 1.78351,-1.61405644 3.97035,-1.0995223 6.41576,1.5095433 3.12161,3.3305072 5.2334,6.4206623 6.9864,10.2230836 1.29189,2.802219 1.50986,3.915725 1.51193,7.723469 0.002,4.084564 -0.15498,4.766758 -1.91811,8.324158 -1.10658,2.232703 -3.93826,6.300395 -6.68141,9.597827 -9.63246,11.578804 -10.05746,16.343346 -2.38724,26.762607 1.32269,1.796744 2.40489,3.719926 2.40489,4.273738 0,1.434871 -2.31555,3.560939 -3.8783,3.560939 -0.72837,0 -1.76158,-0.437278 -2.29603,-0.971725 z"
     id="path3448"
     inkscape:connector-curvature="0" />
  <path
     style="fill:#ffffff"
     d="M 82.271938,69.811318 C 80.980189,68.165996 78.928242,64.85785 77.712057,62.459889 75.588217,58.272291 75.50081,57.91134 75.50081,53.328355 c 0,-4.47116 0.122285,-5.015572 1.942183,-8.646561 1.068201,-2.131231 3.283502,-5.513785 4.922892,-7.516786 8.722246,-10.656812 10.13864,-13.803881 8.700392,-19.331299 -0.886049,-3.405228 -1.280914,-4.108467 -5.23251,-9.3189052 -1.534053,-2.0227503 -2.789188,-4.1520471 -2.789188,-4.7317705 0,-1.4891368 1.622786,-2.77609 3.500516,-2.77609 2.886583,0 9.266181,8.1709895 11.326363,14.5068057 2.235252,6.874229 0.02557,13.253539 -8.130363,23.472169 -5.72577,7.173858 -7.20467,10.067735 -7.211694,14.11167 -0.0067,3.83263 0.994856,6.530157 4.135492,11.138749 1.417545,2.080119 2.732387,4.399729 2.921872,5.154699 0.473434,1.886312 -0.972332,3.411777 -3.233523,3.411777 -1.49019,0 -2.061348,-0.418643 -4.081304,-2.991495 z"
     id="path3450"
     inkscape:connector-curvature="0" />
  <path
     style="fill:#ffffff"
     d=""
     id="path3452"
     inkscape:connector-curvature="0" />
  <path
     style="fill:#ffffff"
     d=""
     id="path3454"
     inkscape:connector-curvature="0" />
  <path
     style="fill:#ffffff"
     d="m 119.31004,73.476411 c -0.95614,-0.20781 -1.70291,-0.679234 -2.45305,-1.548573 -1.37464,-1.593057 -2.69258,-3.326987 -3.79291,-4.990085 -3.88896,-5.877975 -5.37285,-11.383821 -4.5132,-16.745867 0.5948,-3.710002 2.21625,-7.165143 5.26451,-11.218104 0.97576,-1.297361 1.70998,-2.197894 3.62957,-4.451726 2.07542,-2.436783 3.06969,-3.642512 3.76887,-4.570384 0.34316,-0.455409 0.6367,-0.815248 0.6523,-0.799642 0.0779,0.07793 -0.88114,1.304264 -4.24824,5.432059 -1.53176,1.877813 -3.09233,3.82391 -3.46793,4.32466 -6.62273,8.829376 -7.26217,17.156254 -1.9946,25.973824 1.62078,2.713082 3.75723,5.611837 5.23512,7.10305 0.5945,0.599867 0.83652,0.796958 1.17349,0.955655 1.38752,0.653457 2.77909,0.364658 3.96409,-0.822682 1.18848,-1.190824 1.39022,-2.826988 0.54659,-4.43297 -0.12213,-0.232491 -0.50182,-0.773886 -0.84376,-1.203101 -1.0369,-1.301558 -2.62487,-3.569284 -2.55107,-3.643089 0.018,-0.01797 0.25825,0.289293 0.53394,0.682818 0.57442,0.819929 1.39421,1.873797 2.40275,3.088817 1.0563,1.272566 1.40101,2.117845 1.31935,3.235234 -0.14854,2.03261 -1.74045,3.590033 -3.74492,3.663798 -0.34143,0.01256 -0.73783,-0.0026 -0.8809,-0.03369 z"
     id="path3456"
     inkscape:connector-curvature="0" />
  <path
     style="fill:#ffffff"
     d="m 116.17367,53.118349 c 0,-0.160956 0.0127,-0.226801 0.0282,-0.146324 0.0155,0.08048 0.0155,0.212169 0,0.292647 -0.0155,0.08048 -0.0282,0.01463 -0.0282,-0.146323 z"
     id="path3458"
     inkscape:connector-curvature="0" />
</svg>
