<?xml version="1.0" encoding="UTF-8" standalone="no"?>
<svg width="620" xmlns="http://www.w3.org/2000/svg" height="580">
 <g fill-rule="evenodd">
  <g stroke-linejoin="round" stroke-linecap="round" stroke-width="5.798">
   <path id="path2387" d="m214.44 213.75c0 21.697-19.188 39.286-42.857 39.286s-42.857-17.589-42.857-39.286 19.188-39.286 42.857-39.286 42.857 17.589 42.857 39.286z"/>
   <path id="path2389" d="m267.87 214.46c0 21.697-19.188 39.286-42.857 39.286s-42.857-17.589-42.857-39.286 19.188-39.286 42.857-39.286 42.857 17.589 42.857 39.286z"/>
   <path id="path2391" d="m317.58 215.53c0 21.697-19.188 39.286-42.857 39.286s-42.857-17.589-42.857-39.286 19.188-39.286 42.857-39.286 42.857 17.589 42.857 39.286z"/>
   <path id="path2393" d="m370.01 216.25c0 21.697-19.188 39.286-42.857 39.286s-42.857-17.589-42.857-39.286 19.188-39.286 42.857-39.286 42.857 17.589 42.857 39.286z"/>
   <path id="path2395" d="m417.3 216.39c0 21.697-19.188 39.286-42.857 39.286s-42.857-17.589-42.857-39.286 19.188-39.286 42.857-39.286 42.857 17.589 42.857 39.286z"/>
   <path id="path2397" d="m469.73 217.1c0 21.697-19.188 39.286-42.857 39.286s-42.857-17.589-42.857-39.286 19.188-39.286 42.857-39.286 42.857 17.589 42.857 39.286z"/>
  </g>
  <path id="path2422" stroke-width="1.157" stroke="#fff" d="m177.09 267.4l112.4 273.49 12.24 5.6273 118.06-277.2-242.7-1.9133z"/>
  <path id="path2407" stroke-linejoin="round" d="m299.81 34.383c-81.726 0-148.04 68.234-148.04 152.31 0 4.6674 0.22044 9.283 0.62053 13.844h294.87c0.40008-4.5608 0.62054-9.1764 0.62054-13.844 0-84.078-66.345-152.31-148.07-152.31z" stroke-linecap="round" stroke-width=".7"/>
 </g>
</svg>
